<svg width="255" height="69" viewBox="0 0 255 69" fill="none" xmlns="http://www.w3.org/2000/svg">
<g clip-path="url(#clip0_3_266)">
<path d="M209.895 26.8228C201.854 22.1533 195.718 18.5449 189.794 15.1492C187.678 13.8755 185.563 12.8151 183.658 11.3275C180.906 9.41579 177.098 7.29371 179.199 3.23577C181.301 -0.608907 185.319 1.08601 188.279 2.14408C191.45 2.9883 194.624 4.6856 197.585 6.1702C211.334 12.7431 225.084 19.5293 238.622 26.316C242.218 28.2254 246.025 29.9209 249.201 32.4713C255.975 37.5708 255.567 42.6903 248.184 46.5497C238.27 51.6958 228.144 56.416 218.018 61.1361C213.799 63.2806 209.369 65.4256 204.937 66.9309C202.404 67.791 199.446 67.586 196.701 67.8069C195.839 61.8379 199.215 60.5488 202.169 59.0477C209.551 54.975 217.145 51.115 224.527 47.0423C227.057 45.5424 229.799 44.0418 232.325 40.6225C228.521 40.2066 224.928 39.5769 221.125 39.3742C192.604 37.961 164.294 36.5471 135.772 35.1339C94.3638 33.1168 53.1663 31.0991 11.757 28.8688C8.37663 28.665 4.99322 27.3948 0.97671 26.3397C4.76293 20.5709 9.20253 21.8381 12.7942 22.0413C33.0743 22.4112 53.5668 23.2071 73.8475 23.7903C117.578 25.1611 161.309 26.5319 205.039 27.9027C206.095 27.6864 206.728 27.4714 209.895 26.8228Z" fill="white"/>
</g>
<defs>
<clipPath id="clip0_3_266">
<rect width="253" height="67" fill="white" transform="translate(254.093 67.6467) rotate(179.84)"/>
</clipPath>
</defs>
</svg>
