<svg width="383" height="153" viewBox="0 0 383 153" fill="none" xmlns="http://www.w3.org/2000/svg">
<path d="M210.5 1.39489C206.1 2.09489 194.9 2.69489 185.5 2.79489C172.9 2.89489 169.4 3.19489 171.8 3.89489C176 5.09489 177.4 8.39489 175.2 11.7949C173.9 13.8949 152.5 40.9949 148.2 45.9949C146.8 47.6949 147 47.7949 151.2 47.7949H155.7L171.6 29.3949C182.1 17.1949 187.8 11.2949 188.5 11.8949C189.1 12.4949 189.6 20.4949 189.8 30.2949L190.2 47.7949H195.6H201L201.2 28.0949L201.5 8.29489L208.5 7.09489C217.5 5.59489 229.8 5.49489 234.1 6.99489C246.4 11.0949 252.3 21.1949 252.3 37.9949V47.7949H258.5H264.7L265.3 42.4949C266.1 35.8949 264.6 25.3949 262.1 19.4949C258.2 10.3949 249.1 3.49489 237.9 0.894891C232.1 -0.505109 220.5 -0.205109 210.5 1.39489Z" fill="white"/>
<path d="M108 4.39489C110.5 5.09489 113.5 6.89489 114.8 8.29489C116.9 10.7949 117 11.6949 117 29.3949V47.7949H123H129V29.9949C129 14.1949 129.2 11.9949 131 9.09489C132.2 7.09489 134.1 5.59489 135.7 5.29489C144 3.49489 141.1 2.89489 123 2.99489C104.8 2.99489 103.8 3.09489 108 4.39489Z" fill="white"/>
<path d="M81.4 69.4949C81.3 74.1949 80.8 77.3949 80.1 77.5949C77.8 78.3949 79.1 79.7949 82.1 79.7949C84.7 79.7949 85 79.5949 84.1 78.3949C82.9 76.8949 83.6 71.7949 85 71.7949C86.4 71.7949 90.2 77.6949 89.5 78.7949C89.1 79.3949 90.2 79.7949 92 79.7949H95.1L91.4 75.1949L87.6 70.5949L91.8 66.6949C94.1 64.4949 96 62.5949 96 62.3949C96 62.1949 94.9 61.9949 93.5 61.9949C92.1 61.9949 91 62.5949 91 63.2949C91 64.7949 86.2 69.7949 84.8 69.7949C83.6 69.7949 84.8 64.3949 86.1 63.9949C87.7 63.3949 86 61.7949 83.7 61.7949C81.6 61.7949 81.5 62.2949 81.4 69.4949Z" fill="white"/>
<path d="M100.6 62.6949C100.2 63.2949 100.4 63.7949 100.9 63.7949C102.4 63.7949 101.2 74.5949 99.4 77.4949C98 79.6949 98.1 79.7949 100.9 79.7949C103.7 79.7949 103.8 79.5949 103.3 76.2949C102.9 73.5949 103.1 72.7949 104.3 72.7949C105.1 72.7949 106.8 74.3949 108 76.2949C110 79.5949 113 81.0949 113 78.7949C113 78.1949 112.7 77.7949 112.2 77.7949C111.8 77.7949 110.8 76.5949 109.9 75.1949C108.4 72.6949 108.4 72.4949 110.7 70.1949C114.9 65.9949 113.2 63.1949 105.8 62.1949C102.9 61.7949 101 61.9949 100.6 62.6949ZM108.4 64.3949C109.3 64.6949 110 65.9949 110 67.2949C110 69.4949 108.3 70.7949 105.4 70.7949C104.5 70.7949 104 69.6949 104 67.9949C104 63.9949 105.1 63.0949 108.4 64.3949Z" fill="white"/>
<path d="M119.4 69.4949C119.3 74.1949 118.8 77.3949 118.1 77.5949C115.8 78.3949 117.1 79.7949 120.1 79.7949C122.6 79.7949 123 79.4949 122.2 78.4949C120.8 76.8949 122.4 64.7949 124 63.7949C124.8 63.2949 124.6 62.8949 123.5 62.3949C119.9 60.9949 119.5 61.6949 119.4 69.4949Z" fill="white"/>
<path d="M131 63.7949C129.9 64.8949 129 66.3949 129 67.1949C129 68.9949 131.7 71.7949 133.4 71.7949C135.6 71.7949 137 73.9949 135.9 75.9949C134.7 78.1949 130 78.4949 130 76.2949C130 74.0949 128.3 74.4949 127.7 76.6949C127.1 79.2949 127.7 79.7949 131.7 79.7949C135.4 79.7949 139 76.8949 139 73.7949C139 72.4949 137.6 71.0949 135 69.7949C131.5 67.9949 131.1 67.4949 132 65.7949C133.3 63.3949 136.8 63.1949 137.6 65.2949C138.5 67.3949 140 67.1949 140 64.8949C140 63.7949 139.1 62.7949 137.8 62.3949C134.2 61.4949 133.1 61.6949 131 63.7949Z" fill="white"/>
<path d="M143.3 63.2949C143 64.1949 143.1 65.1949 143.5 65.5949C143.9 65.9949 144.5 65.6949 144.7 64.9949C145 64.3949 146.1 63.7949 147.2 63.7949C149 63.7949 149.1 64.1949 148.4 70.4949C148.1 74.2949 147.3 77.3949 146.9 77.5949C144.8 78.3949 146.3 79.7949 149.1 79.7949C151.6 79.7949 152 79.4949 151.1 78.3949C150.4 77.5949 150.2 74.8949 150.7 70.8949C151.3 64.3949 152.8 62.5949 155.4 64.6949C156.4 65.4949 157 65.5949 157.5 64.7949C158.8 62.6949 156.7 61.7949 150.4 61.7949C145.5 61.7949 143.8 62.1949 143.3 63.2949Z" fill="white"/>
<path d="M163 62.0949C163 62.1949 162.8 65.6949 162.5 69.7949C162.3 73.8949 161.7 77.3949 161.1 77.5949C158.8 78.3949 160.2 79.7949 163.1 79.7949C165.6 79.7949 166 79.4949 165.2 78.4949C163.8 76.7949 165.4 64.7949 167.2 63.6949C167.9 63.1949 168.3 62.7949 168 62.6949C167.7 62.6949 166.5 62.4949 165.3 62.1949C164 61.9949 163 61.8949 163 62.0949Z" fill="white"/>
<path d="M172.6 62.6949C172.3 63.1949 172.4 63.7949 172.9 63.9949C174 64.3949 172.3 76.6949 170.9 78.4949C170 79.4949 170.4 79.7949 172.9 79.7949C175.8 79.7949 177.2 78.3949 175.1 77.5949C174.5 77.3949 174.4 74.9949 174.9 71.7949L175.6 66.2949L179.9 72.9949C182.2 76.7949 184.5 79.7949 185 79.7949C185.5 79.7949 186.1 77.9949 186.4 75.7949C186.7 73.5949 187.3 69.9949 187.6 67.7949C187.9 65.5949 188.6 63.7949 189.1 63.7949C189.7 63.7949 189.8 63.2949 189.5 62.7949C188.7 61.4949 184 61.4949 184 62.6949C184 63.1949 184.4 63.7949 184.9 63.9949C185.5 64.1949 185.6 66.5949 185.2 69.7949L184.5 75.2949L180 68.8949C175.5 62.3949 173.7 60.8949 172.6 62.6949Z" fill="white"/>
<path d="M197.2 70.7949C192.3 79.5949 192.2 79.7949 194.5 79.7949C196 79.7949 196.8 79.2949 196.5 78.4949C195.6 76.0949 197.6 74.6949 201.6 74.9949C204.9 75.2949 205.5 75.5949 205.4 77.4949C205.4 79.1949 205.9 79.7949 207.6 79.7949C209.8 79.7949 209.8 79.6949 208.4 76.9949C207.7 75.4949 207 73.8949 207 73.4949C207 71.1949 203.8 61.7949 203 61.7949C202.5 61.7949 199.9 65.7949 197.2 70.7949ZM204 69.6949C204.8 72.6949 204.7 72.7949 201.9 72.7949C198.5 72.7949 198.5 72.6949 200.6 68.6949C202.4 65.1949 202.7 65.2949 204 69.6949Z" fill="white"/>
<path d="M224.4 69.3949C224.4 74.3949 224 77.2949 223.2 77.5949C220.8 78.3949 222.1 79.7949 225.1 79.7949C227.6 79.7949 228 79.4949 227.2 78.4949C225.2 76.1949 226.9 72.7949 230 72.7949C233.7 72.7949 236 70.3949 236 66.7949C236 63.2949 235.4 62.8949 229.3 62.0949L224.5 61.5949L224.4 69.3949ZM232.9 64.6949C235.1 66.0949 233.5 70.4949 230.4 71.1949C227 72.0949 226.6 71.5949 227.4 67.2949C228.1 63.6949 229.9 62.7949 232.9 64.6949Z" fill="white"/>
<path d="M245.3 62.7949C239.8 64.9949 237.6 74.4949 241.9 77.8949C246.8 81.8949 254.2 79.2949 256.1 72.8949C258.4 65.1949 252.6 59.8949 245.3 62.7949ZM252.4 65.3949C254.7 67.5949 254.4 73.3949 252 75.7949C249.8 77.9949 245.1 78.4949 243.2 76.5949C241.1 74.4949 241.8 68.8949 244.5 66.2949C247.3 63.3949 250.2 63.0949 252.4 65.3949Z" fill="white"/>
<path d="M262 62.6949C262 63.1949 262.4 63.7949 262.9 63.9949C264 64.3949 262.3 76.6949 260.9 78.4949C260 79.5949 260.9 79.7949 265.9 79.7949C270.5 79.7949 272.2 79.3949 272.7 78.2949C273 77.3949 272.9 76.3949 272.5 75.9949C272.1 75.5949 271.5 75.8949 271.3 76.4949C271 77.1949 269.4 77.7949 267.6 77.7949H264.3L265.2 70.9949C265.7 67.2949 266.6 64.0949 267.1 63.9949C269.2 63.1949 267.8 61.7949 265 61.7949C263.4 61.7949 262 62.1949 262 62.6949Z" fill="white"/>
<path d="M277.7 62.3949C277.4 62.6949 278.3 64.7949 279.6 67.0949C282.2 71.6949 282.7 76.6949 280.8 78.5949C279.9 79.4949 280.3 79.7949 282.8 79.7949C284.6 79.7949 286 79.2949 286 78.7949C286 78.1949 285.5 77.7949 285 77.7949C282.4 77.7949 287.5 67.5949 291.8 64.0949C292.7 63.3949 293.1 62.4949 292.7 62.1949C291.8 61.1949 286.8 62.6949 287.5 63.7949C288.1 64.7949 285.3 69.7949 284 69.7949C283.6 69.7949 282.8 68.5949 282.1 67.0949C281.1 64.9949 281.2 64.2949 282.2 63.6949C282.9 63.1949 283.3 62.7949 283 62.6949C282.7 62.6949 281.6 62.4949 280.4 62.2949C279.2 61.9949 278 62.0949 277.7 62.3949Z" fill="white"/>
<path d="M117.7 95.4949C117.4 95.9949 117.2 100.395 117.2 105.495C117.1 112.095 116.7 115.395 115.5 117.095C113.7 119.895 110 121.795 106.5 121.795C105.1 121.795 104 122.195 104 122.795C104 123.395 111 123.795 123 123.795C135 123.795 142 123.395 142 122.795C142 122.195 140.6 121.795 138.9 121.795C136.7 121.795 134.8 120.795 132.4 118.395L129 114.995V104.895V94.7949H123.6C120.6 94.7949 117.9 95.0949 117.7 95.4949Z" fill="white"/>
<path d="M169 100.495C172 103.695 177.2 109.095 180.5 112.595C186.2 118.595 186.4 118.995 184.6 120.395C183.5 121.195 181.4 121.795 179.9 121.795C178.4 121.795 176.8 122.195 176.5 122.795C176.1 123.395 178.5 123.795 183.1 123.795H190.2L196.2 129.395C213.7 145.495 229.2 152.695 246.6 152.795C259.7 152.795 264.7 150.595 254 149.495C241.2 148.095 225.8 140.595 213.4 129.595L206.9 123.795H210.5C212.4 123.795 214 123.295 214 122.795C214 122.195 212.7 121.795 211 121.795C209.1 121.795 206.8 120.695 204.8 118.895C201.5 115.995 201.5 115.895 201.2 105.395L200.8 94.7949H195.4H190V99.9949V105.195L184.7 99.9949L179.4 94.7949H171.5H163.6L169 100.495Z" fill="white"/>
<path d="M0 100.795C0 101.395 0.3 101.795 0.8 101.795C1.2 101.795 3 104.195 4.8 107.195C8.8 113.995 9.3 120.395 5.8 121.095C4.5 121.295 6 121.495 9 121.495C12 121.595 13.8 121.395 12.9 121.095C9.2 120.195 10.4 109.795 14.9 103.695C17.6 99.9949 17.6 99.6949 14.1 99.9949C11.7 100.195 11.4 100.495 12.3 101.895C13 103.095 13 104.495 12 106.695C11.3 108.395 10.5 109.795 10.1 109.795C9.8 109.795 8.5 108.195 7.2 106.195C5.5 103.595 5.2 102.295 5.9 101.395C6.7 100.395 6.2 100.095 3.5 99.9949C1.6 99.8949 0 100.295 0 100.795Z" fill="white"/>
<path d="M31.3 101.295C28.5 103.295 26.6 108.995 27.4 113.295C28.2 117.295 31.5 121.795 33.8 121.795C35.1 121.795 35 121.495 33.3 120.295C30.7 118.495 29.5 111.295 31 105.895C32.3 100.995 35.8 99.3949 39 102.295C41.9 104.895 41.9 116.895 39 119.795C37.6 121.195 37.4 121.795 38.3 121.795C39.1 121.795 40.4 120.995 41.4 119.895C49.3 111.195 40.4 94.8949 31.3 101.295Z" fill="white"/>
<path d="M55.8 100.995C56.5 101.695 57 105.195 57 110.295C57 118.995 58.4 121.895 62.6 121.695C64.3 121.695 64.3 121.595 62.4 120.795C61.1 120.295 60 118.695 59.6 116.795C58.7 111.895 58.9 102.295 60 101.195C60.6 100.595 59.9 100.095 57.8 99.9949C55.2 99.7949 54.8 99.9949 55.8 100.995Z" fill="white"/>
<path d="M69.4 101.995C71.2 104.495 71.5 113.295 70 117.295C69.5 118.695 68 120.295 66.8 120.795C65.4 121.295 65.1 121.695 66.1 121.695C66.9 121.795 68.5 121.195 69.6 120.395C71.2 119.195 71.6 117.495 71.9 110.395C72 105.695 72.6 101.795 73.2 101.795C73.7 101.795 73.8 101.295 73.5 100.795C73.2 100.195 71.8 99.7949 70.4 99.7949C68 99.7949 68 99.8949 69.4 101.995Z" fill="white"/>
<path d="M86.8 110.195C87.1 119.595 87 120.695 85.3 121.095C84.3 121.395 85.8 121.595 88.5 121.495C91.3 121.495 92.5 121.295 91.3 121.095C89.3 120.695 89 119.995 89 115.695C89 111.195 89.2 110.795 91.4 110.795C94.4 110.795 95.3 112.095 96 117.295C96.4 120.795 96.8 121.295 99 121.295C100.7 121.295 101.5 120.695 101.7 119.295C101.9 118.195 101.7 117.895 101.4 118.495C100.5 120.595 99 119.895 99 117.395C99 116.095 98.2 113.995 97.1 112.695C95.3 110.395 95.3 110.395 97.4 109.295C101.5 107.195 100.2 100.795 95.6 100.795C93.7 100.895 93.7 100.995 95.3 101.895C99.3 104.295 96.3 109.795 90.9 109.795C88.9 109.795 88.8 109.395 89.2 104.795C89.6 100.695 89.4 99.7949 88.1 99.7949C86.7 99.7949 86.5 101.195 86.8 110.195Z" fill="white"/>
<path d="M220 101.295C218.5 103.195 218.4 107.595 219.9 109.095C220.5 109.695 223.1 111.295 225.7 112.695C229.4 114.695 230.5 115.895 230.5 117.795C230.5 119.495 229.8 120.395 228 120.895C225.8 121.495 225.8 121.595 227.6 121.695C230.2 121.795 233 118.895 233 115.995C233 113.595 229.2 110.395 224.5 108.795C220.7 107.495 219.5 105.495 221 102.695C223 99.0949 227.1 100.695 230.7 106.395C231.8 108.095 231.9 107.995 231.7 104.995C231.6 102.695 231.1 101.795 229.8 101.795C228.9 101.795 227.8 101.295 227.5 100.795C226.6 99.2949 221.4 99.5949 220 101.295Z" fill="white"/>
<path d="M244.4 100.595C243.8 100.995 243.1 102.895 242.7 104.795C242.1 108.295 242.2 108.295 243.4 105.595C244 104.095 245.5 102.195 246.5 101.295C248 100.195 248.1 99.8949 247 99.7949C246.2 99.7949 245 100.195 244.4 100.595Z" fill="white"/>
<path d="M249.9 100.695C249.9 100.995 249.9 105.695 250 110.995C250.1 120.295 250 120.695 247.8 121.095C246.5 121.295 248 121.495 251 121.495C254 121.595 255.7 121.395 254.8 121.095C253.2 120.695 253 119.395 253 111.295C253 106.095 253.4 101.695 253.8 101.395C255.2 100.595 258.8 103.595 259.3 106.095C259.5 107.295 259.8 106.495 259.9 104.295L260 100.195L255 100.095C252.3 100.095 250 100.295 249.9 100.695Z" fill="white"/>
<path d="M270 100.895C270 101.395 270.4 101.795 270.9 101.795C271.3 101.795 273.1 104.095 274.9 106.895C278.9 113.295 279.3 120.395 275.8 121.095C274.5 121.295 276 121.495 279 121.495C282 121.595 283.7 121.395 282.8 121.095C279.9 120.395 280.4 112.095 283.6 106.395C285 103.895 286.7 101.795 287.3 101.795C288.8 101.795 287.2 100.395 285.3 100.195C283 99.7949 281.5 100.895 283 101.795C283.8 102.295 283.7 103.495 282.4 106.095C281.4 108.195 280.4 109.795 280.1 109.795C279.8 109.795 278.5 108.095 277.3 105.895C275.8 103.295 275.4 101.795 276.2 100.995C276.9 100.295 276.1 99.9949 273.6 99.9949C271.6 99.9949 270 100.395 270 100.895Z" fill="white"/>
<path d="M299.8 110.395C300.1 119.595 300 120.695 298.3 121.095C297.3 121.395 300.2 121.595 304.6 121.695C312.3 121.795 312.8 121.695 313.4 119.495C313.7 118.295 314 116.395 313.9 115.295C313.9 113.895 313.4 114.295 312.2 116.795C310.8 119.695 309.9 120.295 306.7 120.595L303 120.895V111.395C303 103.795 303.3 101.695 304.6 100.995C305.7 100.395 305.3 100.095 302.8 100.095H299.5L299.8 110.395Z" fill="white"/>
<path d="M325 101.195C325.5 101.695 326 106.295 326 111.395C326 119.395 325.8 120.695 324.3 121.095C323.3 121.395 324.8 121.595 327.5 121.595C330.3 121.595 331.7 121.395 330.7 121.095C329.1 120.695 328.9 119.495 329.1 110.495L329.3 100.395L326.6 100.195C324.7 100.095 324.2 100.395 325 101.195Z" fill="white"/>
<path d="M343.6 101.095C341.5 102.695 341.2 107.095 343 109.295C343.7 110.095 346.2 111.695 348.5 112.695C353.4 114.795 354.4 116.095 353.5 118.695C352.1 123.095 346.1 121.695 343 116.095C341.4 113.295 341 112.995 341.4 114.795C341.7 116.195 342 118.195 342 119.195C342 120.295 342.3 120.895 342.6 120.595C342.9 120.195 344.6 120.495 346.3 121.295C349.8 122.595 351.5 122.395 354.3 119.995C358.2 116.595 355 111.295 347.5 108.795C343.7 107.495 342.5 105.495 344 102.695C346 99.0949 350.2 100.695 353.7 106.395C354.8 108.195 354.9 108.095 354.9 105.595C355 101.195 347.5 98.2949 343.6 101.095Z" fill="white"/>
<path d="M366.3 100.495C365.6 100.695 365 102.595 365 104.595L365.1 108.295L366.5 104.995C367.3 103.295 368.4 101.795 369 101.795C369.5 101.795 370 101.295 370 100.795C370 99.7949 368.4 99.5949 366.3 100.495Z" fill="white"/>
<path d="M371.8 100.995C372.6 101.795 373 105.595 373 111.395C373 120.195 372.9 120.695 370.8 121.095C369.5 121.295 371 121.495 374 121.495C377 121.595 378.7 121.395 377.8 121.095C375.4 120.495 374.7 117.195 375.2 107.795C375.5 99.8949 375.5 99.7949 373.1 99.7949C371.1 99.7949 370.9 100.095 371.8 100.995Z" fill="white"/>
<path d="M378.7 101.595C379.9 102.495 381.4 104.395 381.9 105.795C382.8 108.195 382.9 108.095 382.9 104.695C383 101.695 382.6 100.895 380.8 100.395C377 99.3949 376.4 99.7949 378.7 101.595Z" fill="white"/>
<path d="M218.4 115.795C218.7 117.195 219 118.795 219 119.395C219 119.995 219.6 120.495 220.3 120.495C220.9 120.495 222.3 120.895 223.3 121.295C224.8 121.895 224.7 121.595 222.8 119.595C221.6 118.295 219.9 116.295 219.2 115.195C218 113.395 218 113.495 218.4 115.795Z" fill="white"/>
</svg>
