<svg width="48" height="48" viewBox="0 0 48 48" fill="none" xmlns="http://www.w3.org/2000/svg">
<path d="M24 42C33.9411 42 42 33.9411 42 24C42 14.0589 33.9411 6 24 6C14.0589 6 6 14.0589 6 24C6 33.9411 14.0589 42 24 42Z" fill="url(#paint0_linear_240_86)"/>
<path d="M20.7 32.25C20.1168 32.25 20.2159 32.0298 20.0148 31.4746L18.3 25.8309L31.5 18" fill="#C8DAEA"/>
<path d="M20.7 32.25C21.15 32.25 21.3488 32.0442 21.6 31.8L24 29.4663L21.0063 27.6611" fill="#A9C9DD"/>
<path d="M21.006 27.6615L28.26 33.0208C29.0878 33.4776 29.6852 33.2411 29.8914 32.2523L32.8442 18.3379C33.1465 17.1258 32.3821 16.5761 31.5903 16.9356L14.2518 23.6213C13.0682 24.096 13.0751 24.7563 14.036 25.0505L18.4855 26.4392L28.7864 19.9405C29.2727 19.6456 29.719 19.8041 29.3527 20.1292" fill="url(#paint1_linear_240_86)"/>
<defs>
<linearGradient id="paint0_linear_240_86" x1="30.0012" y1="12.0012" x2="21.0012" y2="33" gradientUnits="userSpaceOnUse">
<stop stop-color="#37AEE2"/>
<stop offset="1" stop-color="#1E96C8"/>
</linearGradient>
<linearGradient id="paint1_linear_240_86" x1="26.2507" y1="23.9998" x2="29.0676" y2="30.4098" gradientUnits="userSpaceOnUse">
<stop stop-color="#EFF7FC"/>
<stop offset="1" stop-color="white"/>
</linearGradient>
</defs>
</svg>
